<svg width="161" height="51" viewBox="0 0 161 51" fill="none" xmlns="http://www.w3.org/2000/svg">
<g clip-path="url(#clip0_4_1105)">
<path d="M153.642 46.9604C157.504 46.9604 158.504 46.9604 158.103 51C156.598 51 25.5293 51 22.0685 51C22.0685 45.0921 22.0685 39.1842 22.0685 32.8218C19.3601 35.498 17.053 37.7703 14.7959 40.0426C12.1879 42.6683 12.1377 42.7188 14.6455 45.3951C15.5984 46.4049 15.448 46.9604 14.5452 47.8188C13.6925 48.6267 13.0405 49.3337 11.9371 48.0713C10.4324 46.4049 8.87757 44.7891 7.12212 43.3248C5.46698 41.9109 5.41682 40.9515 7.07196 39.4366C10.6832 36.104 14.0938 32.5693 17.5545 29.1356C17.4542 28.9337 17.404 28.7317 17.3037 28.4792C13.7427 28.4792 10.2318 28.6307 6.67072 28.4287C4.41371 28.3277 3.36044 28.9337 3.76168 31.3069C4.11277 33.4277 3.20997 34.2356 1.15358 33.8822C0.852648 33.7812 0.401246 33.8317 0 33.8317C0 30.1455 0 26.4089 0 22.7228C5.86822 22.7228 11.6863 22.7228 17.5545 22.7228C17.6548 22.4703 17.7551 22.2178 17.8554 22.0158C15.3978 19.6426 12.89 17.3198 10.4826 14.9465C8.02492 12.5228 7.97477 12.4218 5.6676 14.896C4.56417 16.1079 3.91215 16.0069 2.75857 14.896C1.45452 13.6842 2.20685 12.9267 2.95919 12.1188C4.41371 10.604 6.119 9.34158 7.3729 7.67525C8.97788 5.50396 10.0312 6.1099 11.5358 7.77624C14.7458 11.3109 18.2065 14.6436 22.0685 18.5822C22.0685 14.0881 21.9682 10.301 22.1187 6.56436C22.1688 4.64554 21.7174 3.93861 19.6611 4.0396C16.1502 4.19109 15.7489 3.43366 17.053 0C20.5639 0 24.0748 0 27.5857 0C28.0872 5.1 27.5355 10.2505 27.7863 15.3505C27.8364 16.3099 27.1844 17.6733 28.2377 18.0772C28.99 18.3802 29.3913 16.9663 30.0935 16.4109C32.2502 14.6941 33.4539 12.0178 35.8614 10.4525C38.2688 8.93762 36.7642 7.32178 35.5103 6.05941C34.5072 4.99901 34.3567 4.39307 35.41 3.18119C36.5134 1.96931 37.2657 2.47426 38.0682 3.28218C39.924 5.1 41.7296 6.96832 43.5854 8.73564C44.5885 9.69505 44.2374 10.2505 43.3346 11.1089C39.5227 14.6941 35.8112 18.3802 32.0495 22.0663C32.2 22.3188 32.3003 22.5208 32.4508 22.7733C36.5635 22.7733 40.7265 22.8743 44.8393 22.7228C47.1464 22.6723 46.043 20.703 46.043 19.6426C46.043 17.7743 46.4944 17.0673 48.4505 17.2693C49.5539 17.3703 49.905 17.8248 49.905 18.8347C49.905 21.3594 49.8548 23.8842 49.9551 26.4089C50.0053 28.0248 49.5037 28.5802 47.7984 28.5802C42.7829 28.4792 37.8174 28.5297 32.4508 28.5297C33.2031 30.196 34.4068 30.9535 35.3097 31.9634C36.6137 33.3772 38.0181 34.6901 39.3221 36.104C41.8299 38.6287 41.9302 38.7802 44.438 36.1545C45.8925 34.6396 46.3941 36.0535 47.1464 36.6089C48.0994 37.2653 48.1997 38.0228 47.1966 38.9317C45.391 40.5475 43.7358 42.3148 42.1308 44.1327C41.0274 45.395 40.2751 45.496 39.0212 44.1327C36.1121 40.901 33.0025 37.8208 29.9931 34.7406C29.4414 34.1851 28.99 33.4277 27.8364 33.1247C27.8364 37.4673 27.8364 41.6584 27.8364 45.799C27.8364 47.5158 30.0903 47.0109 30.9931 47.0109" fill="#D7111D"/>
<path d="M89.2773 -4.20548e-05C89.3776 0.403918 89.6785 0.454413 89.9795 0.555404C94.3932 2.22174 95.2458 5.30194 92.2365 8.83659C91.434 9.796 91.1832 10.2 92.2365 11.2604C94.7944 13.8356 93.2897 18.7336 89.4779 19.9455C85.1144 21.3594 80.5 20.5009 76.0362 20.6524C75.2337 20.7029 75.3841 20.198 75.4845 19.6425C76.7383 13.5831 77.9922 7.47323 79.196 1.41382C79.4468 0.151443 80.3496 0.454413 81.1019 0.353423C83.3088 0.100948 85.5658 0.908869 87.6723 -0.0505371C88.2742 -4.20548e-05 88.7757 -4.20548e-05 89.2773 -4.20548e-05ZM83.8103 17.2693C83.8103 17.3198 83.8103 17.3198 83.8103 17.3703C84.9639 17.2693 86.1676 17.3198 87.2711 17.0168C88.5751 16.6633 89.3776 15.6029 89.2271 14.1891C89.1268 12.8762 88.0735 12.3712 86.9701 12.2703C85.4153 12.1693 83.8103 12.2198 82.2555 12.2198C81.8542 12.2198 81.4028 12.2703 81.3025 12.7752C81.0016 14.1386 80.3496 15.6534 80.6505 16.9158C80.9013 17.8752 82.5564 17.1683 83.6097 17.3198C83.6097 17.2693 83.71 17.2693 83.8103 17.2693ZM84.7633 8.53362C86.0172 8.53362 87.1206 8.58412 88.1739 8.18016C89.4278 7.7257 90.0296 6.7663 89.829 5.45342C89.6284 4.14055 88.6253 4.03956 87.572 4.03956C86.7193 4.03956 85.8667 4.14055 85.0642 4.03956C82.1552 3.58511 82.5063 6.00887 82.406 7.42273C82.1552 9.54352 84.1112 8.02867 84.7633 8.53362Z" fill="#17429D"/>
<path d="M124.887 0C124.988 0.151485 125.038 0.353465 125.138 0.40396C130.806 3.0297 132.611 6.91782 130.806 12.7248C129 18.5822 123.934 21.9149 118.417 20.804C115.057 20.1475 112.85 17.7743 112.349 14.3406C111.646 9.44257 114.204 2.77723 119.471 0.959406C119.972 0.807921 120.424 0.656436 120.424 0C121.878 0 123.383 0 124.887 0ZM116.311 12.2198C116.261 14.4921 117.113 16.3099 118.718 17.0673C120.574 17.9257 122.279 17.4713 123.884 16.3099C126.292 14.4921 127.796 9.94753 126.944 7.06931C126.191 4.49406 123.684 3.23168 121.226 4.14059C118.468 5.1505 116.411 8.53366 116.311 12.2198Z" fill="#17429D"/>
<path d="M161 25.7524C159.495 27.8227 158.994 30.297 158.542 32.7208C157.89 36.1039 157.338 39.5376 156.887 42.9713C156.586 45.496 154.73 44.9911 153.326 44.7386C151.47 44.4356 152.674 43.0218 152.824 42.1633C153.025 40.497 153.426 38.8812 153.828 37.2653C154.128 36.1544 153.727 35.7 152.624 35.801C152.473 35.801 152.273 35.801 152.122 35.801C146.555 35.6495 146.555 35.6495 145.452 41.1534C145.351 41.7089 145.1 42.3148 145.05 42.8703C145 44.8901 143.696 45.193 142.141 44.9911C140.235 44.6881 140.737 43.1227 140.938 42.0119C141.74 37.8208 142.693 33.6802 143.596 29.4891C143.847 28.2772 144.198 27.0148 144.348 25.8029C144.499 24.894 144.9 24.5911 145.803 24.4901C148.561 24.1871 148.962 24.5911 148.26 27.4188C147.006 32.3673 147.006 32.2158 152.072 32.4178C154.379 32.5188 155.182 31.6099 155.382 29.5901C155.433 29.0851 155.533 28.5802 155.633 28.1257C156.486 24.0861 156.837 23.8841 160.95 24.8435C161 25.096 161 25.399 161 25.7524Z" fill="#17429D"/>
<path d="M69.2147 0C70.5689 6.1604 71.3212 12.3713 72.3745 18.5822C72.6252 20.1475 71.572 20.4505 70.5689 20.6525C69.3651 20.9049 68.5125 20.299 68.5626 19.0871C68.6629 16.1584 66.9075 16.2594 64.7006 16.1079C61.6411 15.9564 59.4343 16.4614 58.3309 19.6931C57.8795 20.9554 57.3779 20.9049 53.6162 20.501C56.124 15.9564 58.6819 11.5634 61.0894 7.1198C62.3433 4.79703 63.9985 2.62574 64.7508 0C66.2053 0 67.71 0 69.2147 0ZM61.9922 12.6238C63.4969 12.6238 64.8511 12.6238 66.1551 12.6238C66.9075 12.6238 67.4592 12.5733 67.3087 11.5634C66.9576 9.59406 66.757 7.57426 66.3558 4.94851C64.7508 7.82673 63.0956 9.94752 61.9922 12.6238Z" fill="#17429D"/>
<path d="M80.7004 44.7893C78.5437 44.7893 76.3368 44.7893 74.1801 44.7893C73.0266 44.7893 72.6253 44.5368 72.9764 43.123C74.2804 37.518 75.4842 31.8626 76.5876 26.2071C76.8885 24.6923 77.4403 24.3388 78.8948 24.3388C82.4558 24.4398 86.0671 24.3388 89.6783 24.3893C90.3804 24.3893 91.835 23.6824 91.6845 25.2982C91.5842 26.4091 91.3836 27.8735 89.578 27.823C87.0702 27.823 84.5624 27.823 82.0546 27.823C81.0515 27.823 79.0452 30.8527 79.3963 31.8121C79.6973 32.62 80.3995 32.2665 80.901 32.2665C83.3085 32.317 85.7661 32.2665 88.1736 32.317C88.7755 32.317 90.0294 31.8626 89.6783 33.1754C89.4275 34.0844 90.0294 35.8012 88.1234 35.8012C85.7661 35.8012 83.459 35.9527 81.1016 35.7507C79.2459 35.5992 78.6942 36.3566 78.3431 37.9725C77.691 41.1537 77.5907 41.1537 80.8509 41.1032C83.0075 41.1032 85.2144 41.0527 87.3711 41.1032C88.0231 41.1032 89.3272 40.5982 88.9761 42.1636C88.7253 43.1735 89.1266 44.7388 87.2708 44.6883C85.0138 44.7893 82.8571 44.8398 80.7004 44.7893Z" fill="#17429D"/>
<path d="M127.697 45.0415C122.631 45.0415 119.471 41.9108 119.421 36.8108C119.371 29.7415 124.036 24.2375 130.255 24.1365C135.521 24.0355 138.882 27.3682 138.882 32.7207C138.932 39.6385 134.067 44.991 127.697 45.0415ZM134.418 32.9226C134.418 28.6306 131.559 26.5603 127.998 28.2266C124.989 29.6405 122.33 35.4979 123.534 38.5781C124.136 40.0929 125.039 41.4058 127.145 41.4563C131.459 41.5573 134.418 38.2246 134.418 32.9226Z" fill="#17429D"/>
<path d="M63.0957 24.4395C64.0988 24.4395 65.102 24.389 66.1051 24.4395C69.8668 24.591 71.6724 25.9544 72.0234 28.9336C72.4247 32.1652 70.3683 35.4979 67.4091 36.5078C65.5534 37.1643 63.5973 37.1138 61.6914 36.9623C59.7353 36.8108 59.0331 37.6187 58.8325 39.386C58.682 40.6989 58.3309 42.0118 58.0801 43.3247C57.8795 44.385 57.4281 44.8395 56.2244 44.89C54.3185 44.9405 53.3153 44.8395 53.9674 42.3148C55.2213 37.4672 56.2745 32.5187 57.0269 27.5197C57.4281 24.9949 58.3309 23.985 60.8387 24.389C61.5911 24.49 62.3434 24.389 63.0957 24.4395C63.0957 24.389 63.0957 24.389 63.0957 24.4395ZM64.0487 27.8227C60.5378 27.8227 60.1867 28.1256 60.2368 31.2058C60.2368 32.2662 59.5848 33.7306 61.892 33.6296C65.8041 33.4276 67.8605 32.3672 67.7101 30.0445C67.6097 27.3177 65.4029 28.0751 64.0487 27.8227Z" fill="#17429D"/>
<path d="M100.712 20.6526C98.7062 21.1575 98.5056 20.1476 98.8566 18.4813C99.7594 14.4922 100.361 10.4021 101.465 6.46349C102.117 4.03972 101.264 3.68626 99.2579 3.88824C98.9068 3.93873 98.5557 3.93873 98.2548 3.88824C97.5024 3.73675 96.0981 4.49418 96.2987 2.82784C96.4492 1.71695 96.2485 0.252596 98.3049 0.353586C102.568 0.505071 106.831 0.404081 111.095 0.404081C111.596 0.404081 112.499 0.101111 112.399 1.01002C112.298 1.81794 112.7 2.97933 111.496 3.38329C111.044 3.53477 110.493 3.53477 109.991 3.53477C106.179 3.68626 106.179 3.63576 105.377 7.47339C104.574 11.2605 103.772 15.0476 103.12 18.8348C102.919 20.2991 102.317 21.0566 100.712 20.6526Z" fill="#17429D"/>
<path d="M103.622 24.3891C105.477 24.3891 107.283 24.3891 109.139 24.3891C109.891 24.3891 111.045 24.0356 110.844 25.4495C110.694 26.5099 110.894 27.9238 109.039 27.8733C106.781 27.7723 104.524 28.0247 102.267 27.8228C100.211 27.6208 99.6092 28.5297 99.2581 30.398C98.5058 34.5386 97.603 38.6287 96.7002 42.7188C96.2989 44.5366 94.4432 45.496 92.8382 44.7386C92.0357 44.3851 92.2865 43.7792 92.3868 43.2238C93.5905 37.4168 94.8444 31.6099 96.0482 25.803C96.2488 24.7426 96.7503 24.2376 97.9039 24.2881C99.7597 24.4396 101.716 24.3891 103.622 24.3891Z" fill="#17429D"/>
<path d="M111.647 44.8901C109.941 45.2941 109.54 44.5367 109.891 43.0218C111.095 37.4674 112.198 31.9129 113.402 26.3584C113.753 24.6921 115.91 23.7327 117.364 24.4396C117.966 24.7426 117.866 25.1971 117.766 25.702C116.512 31.408 115.358 37.1644 114.004 42.8703C113.703 43.8802 113.502 45.5971 111.647 44.8901Z" fill="#17429D"/>
</g>
<defs>
<clipPath id="clip0_4_1105">
<rect width="161" height="51" fill="white"/>
</clipPath>
</defs>
</svg>
