<svg width="47" height="48" viewBox="0 0 47 48" fill="none" xmlns="http://www.w3.org/2000/svg">
<g clip-path="url(#clip0_1_4058)">
<path d="M27.8886 44.198C31.5221 44.198 31.5221 44.198 31.1446 48C29.7289 48 24.0191 48 20.7631 48C20.7631 42.4396 20.7631 36.8792 20.7631 30.8911C18.2149 33.4099 16.0442 35.5485 13.9207 37.6871C11.4669 40.1584 11.4197 40.2059 13.7791 42.7248C14.6757 43.6752 14.5341 44.198 13.6847 45.0059C12.8825 45.7663 12.2691 46.4317 11.2309 45.2436C9.81526 43.6752 8.35241 42.1545 6.7008 40.7762C5.14357 39.4455 5.09639 38.5426 6.65361 37.1168C10.0512 33.9802 13.26 30.6535 16.5161 27.4218C16.4217 27.2317 16.3745 27.0416 16.2801 26.804C12.9297 26.804 9.62651 26.9465 6.2761 26.7564C4.15261 26.6614 3.16165 27.2317 3.53916 29.4653C3.86948 31.4614 3.02008 32.2218 1.08534 31.8891C0.802209 31.7941 0.37751 31.8416 0 31.8416C0 28.3723 0 24.8554 0 21.3861C5.52108 21.3861 10.995 21.3861 16.5161 21.3861C16.6104 21.1485 16.7048 20.9109 16.7992 20.7208C14.4869 18.4871 12.1275 16.301 9.86245 14.0673C7.5502 11.7861 7.50301 11.6911 5.33233 14.0198C4.29418 15.1604 3.68072 15.0653 2.59538 14.0198C1.36847 12.8792 2.07631 12.1663 2.78414 11.4059C4.15261 9.9802 5.75703 8.79208 6.93675 7.22376C8.44679 5.1802 9.43775 5.75049 10.8534 7.31881C13.8735 10.6455 17.1295 13.7822 20.7631 17.4891C20.7631 13.2594 20.6687 9.69505 20.8102 6.17822C20.8574 4.37228 20.4327 3.70693 18.498 3.80198C15.1948 3.94455 14.8173 3.23168 16.0442 0C19.3474 0 22.6506 0 25.9538 0C26.4257 4.8 25.9066 9.64752 26.1426 14.4475C26.1898 15.3505 25.5763 16.6337 26.5673 17.0139C27.2751 17.299 27.6526 15.9683 28.3133 15.4455C30.3424 13.8297 31.4749 11.3109 33.74 9.83762C36.005 8.41188 34.5894 6.89109 33.4096 5.70297C32.4659 4.70495 32.3243 4.13465 33.3153 2.99406C34.3534 1.85347 35.0612 2.32871 35.8163 3.08911C37.5622 4.8 39.261 6.55842 41.007 8.22178C41.9508 9.12475 41.6205 9.64752 40.7711 10.4554C37.1847 13.8297 33.6928 17.299 30.1536 20.7683C30.2952 21.0059 30.3896 21.196 30.5311 21.4337C34.4006 21.4337 38.3173 21.5287 42.1867 21.3861C44.3574 21.3386 43.3193 19.4851 43.3193 18.4871C43.3193 16.7287 43.744 16.0634 45.5843 16.2535C46.6225 16.3485 46.9528 16.7762 46.9528 17.7267C46.9528 20.103 46.9056 22.4792 47 24.8554C47.0472 26.3762 46.5753 26.899 44.9709 26.899C40.252 26.804 35.5803 26.8515 30.5311 26.8515C31.239 28.4198 32.3715 29.1327 33.2209 30.0832C34.4478 31.4139 35.7691 32.6495 36.996 33.9802C39.3554 36.3564 39.4498 36.499 41.8092 34.0277C43.1777 32.602 43.6496 33.9327 44.3574 34.4554C45.254 35.0733 45.3484 35.7861 44.4046 36.6416C42.7058 38.1624 41.1486 39.8257 39.6386 41.5366C38.6004 42.7248 37.8926 42.8198 36.7129 41.5366C33.9759 38.4951 31.0502 35.596 28.2189 32.697C27.6998 32.1743 27.2751 31.4614 26.1898 31.1762C26.1898 35.2634 26.1898 39.2079 26.1898 43.1049C26.1898 44.7208 27.3695 44.2455 28.2189 44.2455" fill="#D7111D"/>
</g>
<defs>
<clipPath id="clip0_1_4058">
<rect width="47" height="48" fill="white"/>
</clipPath>
</defs>
</svg>
