<svg width="17" height="18" viewBox="0 0 17 18" fill="none" xmlns="http://www.w3.org/2000/svg">
<path d="M15.5837 6.5975V12.3647C15.5837 12.9528 15.3587 13.5185 14.9549 13.9459C14.5511 14.3733 13.999 14.63 13.4119 14.6633L13.2816 14.6668H3.71908C3.13106 14.6669 2.56532 14.4419 2.13791 14.0381C1.7105 13.6342 1.45382 13.0822 1.42053 12.4951L1.41699 12.3647V6.5975L8.25383 10.1788C8.32988 10.2187 8.41446 10.2395 8.50033 10.2395C8.58619 10.2395 8.67077 10.2187 8.74683 10.1788L15.5837 6.5975ZM3.71908 3.3335H13.2816C13.8522 3.33343 14.4025 3.54528 14.8258 3.92798C15.249 4.31067 15.5151 4.83692 15.5723 5.40466L8.50033 9.10925L1.42833 5.40466C1.48324 4.85947 1.73082 4.35174 2.12657 3.97274C2.52231 3.59374 3.04027 3.36834 3.58733 3.33704L3.71908 3.3335Z" fill="#1853D2"/>
</svg>
