<svg width="17" height="17" viewBox="0 0 17 17" fill="none" xmlns="http://www.w3.org/2000/svg">
<path d="M3.31833 7.14083C4.63833 9.735 6.765 11.8617 9.35917 13.1817L11.3758 11.165C11.6325 10.9083 11.99 10.835 12.3108 10.9358C13.3375 11.275 14.4375 11.4583 15.5833 11.4583C15.8264 11.4583 16.0596 11.5549 16.2315 11.7268C16.4034 11.8987 16.5 12.1319 16.5 12.375V15.5833C16.5 15.8264 16.4034 16.0596 16.2315 16.2315C16.0596 16.4034 15.8264 16.5 15.5833 16.5C11.4504 16.5 7.48669 14.8582 4.56425 11.9357C1.64181 9.01331 0 5.04962 0 0.916667C0 0.673552 0.0965771 0.440394 0.268485 0.268485C0.440394 0.0965771 0.673552 0 0.916667 0H4.125C4.36812 0 4.60127 0.0965771 4.77318 0.268485C4.94509 0.440394 5.04167 0.673552 5.04167 0.916667C5.04167 2.0625 5.225 3.1625 5.56417 4.18917C5.665 4.51 5.59167 4.8675 5.335 5.12417L3.31833 7.14083Z" fill="#1853D2"/>
</svg>
