<svg width="17" height="17" viewBox="0 0 17 17" fill="none" xmlns="http://www.w3.org/2000/svg">
<path d="M8.5 0.708252C10.1908 0.708252 11.8123 1.3799 13.0078 2.57545C14.2033 3.77099 14.875 5.3925 14.875 7.08325C14.875 9.7225 12.8633 12.4878 8.925 15.4416C8.80239 15.5335 8.65326 15.5833 8.5 15.5833C8.34674 15.5833 8.19761 15.5335 8.075 15.4416C4.13667 12.4878 2.125 9.7225 2.125 7.08325C2.125 5.3925 2.79665 3.77099 3.99219 2.57545C5.18774 1.3799 6.80924 0.708252 8.5 0.708252ZM8.5 4.95825C7.93641 4.95825 7.39591 5.18214 6.9974 5.58065C6.59888 5.97916 6.375 6.51967 6.375 7.08325C6.375 7.64684 6.59888 8.18734 6.9974 8.58585C7.39591 8.98437 7.93641 9.20825 8.5 9.20825C9.06358 9.20825 9.60409 8.98437 10.0026 8.58585C10.4011 8.18734 10.625 7.64684 10.625 7.08325C10.625 6.51967 10.4011 5.97916 10.0026 5.58065C9.60409 5.18214 9.06358 4.95825 8.5 4.95825Z" fill="#17429D"/>
</svg>
