<svg width="24" height="24" viewBox="0 0 24 24" fill="none" xmlns="http://www.w3.org/2000/svg">
<path d="M12.001 1.99976C6.48098 1.99976 2.00098 6.47976 2.00098 11.9998C2.00098 17.5198 6.48098 21.9998 12.001 21.9998C17.521 21.9998 22.001 17.5198 22.001 11.9998C22.001 6.47976 17.521 1.99976 12.001 1.99976ZM16.641 8.79976C16.491 10.3798 15.841 14.2198 15.511 15.9898C15.371 16.7398 15.091 16.9898 14.831 17.0198C14.251 17.0698 13.811 16.6398 13.251 16.2698C12.371 15.6898 11.871 15.3298 11.021 14.7698C10.031 14.1198 10.671 13.7598 11.241 13.1798C11.391 13.0298 13.951 10.6998 14.001 10.4898C14.0079 10.4579 14.007 10.4249 13.9983 10.3936C13.9896 10.3622 13.9733 10.3334 13.951 10.3098C13.891 10.2598 13.811 10.2798 13.741 10.2898C13.651 10.3098 12.251 11.2398 9.52098 13.0798C9.12098 13.3498 8.76098 13.4898 8.44098 13.4798C8.08098 13.4698 7.40098 13.2798 6.89098 13.1098C6.26098 12.9098 5.77098 12.7998 5.81098 12.4498C5.83098 12.2698 6.08098 12.0898 6.55098 11.8998C9.47098 10.6298 11.411 9.78976 12.381 9.38976C15.161 8.22976 15.731 8.02976 16.111 8.02976C16.191 8.02976 16.381 8.04976 16.501 8.14976C16.601 8.22976 16.631 8.33976 16.641 8.41976C16.631 8.47976 16.651 8.65976 16.641 8.79976Z" fill="white"/>
</svg>
