<svg width="24" height="24" viewBox="0 0 24 24" fill="none" xmlns="http://www.w3.org/2000/svg">
<path fill-rule="evenodd" clip-rule="evenodd" d="M16.6771 2.62805C13.5309 1.92477 10.2683 1.92477 7.1221 2.62805L6.7831 2.70305C5.89812 2.90091 5.08531 3.34023 4.43497 3.97221C3.78463 4.60419 3.32222 5.40409 3.0991 6.28305C2.3016 9.42557 2.3016 12.7175 3.0991 15.86C3.31188 16.6983 3.74251 17.4654 4.34734 18.0836C4.95216 18.7018 5.70969 19.149 6.5431 19.38L7.0081 22.156C7.02295 22.2442 7.06115 22.3268 7.11874 22.3951C7.17632 22.4635 7.25119 22.5152 7.33553 22.5448C7.41987 22.5744 7.51061 22.5809 7.5983 22.5635C7.68599 22.5461 7.76741 22.5056 7.8341 22.446L10.5651 20.003C12.6152 20.1282 14.6727 19.9642 16.6771 19.516L17.0171 19.441C17.9021 19.2432 18.7149 18.8039 19.3652 18.1719C20.0156 17.5399 20.478 16.74 20.7011 15.861C21.4985 12.7185 21.4985 9.42658 20.7011 6.28405C20.4779 5.40496 20.0153 4.60498 19.3648 3.97298C18.7143 3.34099 17.9013 2.90174 17.0161 2.70405L16.6771 2.62805ZM7.9661 6.20205C7.78025 6.17499 7.59074 6.2124 7.4291 6.30805H7.4151C7.0401 6.52805 6.7021 6.80505 6.4141 7.13105C6.1741 7.40805 6.0441 7.68805 6.0101 7.95805C5.9901 8.11805 6.0041 8.28005 6.0511 8.43304L6.0691 8.44305C6.3391 9.23604 6.6911 9.99904 7.1211 10.717C7.67556 11.7255 8.35786 12.6582 9.1511 13.492L9.1751 13.526L9.2131 13.554L9.2361 13.581L9.2641 13.605C10.1008 14.4007 11.0357 15.0862 12.0461 15.645C13.2011 16.274 13.9021 16.571 14.3231 16.695V16.701C14.4461 16.739 14.5581 16.756 14.6711 16.756C15.0296 16.7295 15.369 16.5838 15.6351 16.342C15.9601 16.054 16.2351 15.715 16.4491 15.338V15.331C16.6501 14.951 16.5821 14.593 16.2921 14.35C15.7096 13.8411 15.0797 13.389 14.4111 13C13.9631 12.757 13.5081 12.904 13.3241 13.15L12.9311 13.646C12.7291 13.892 12.3631 13.858 12.3631 13.858L12.3531 13.864C9.6221 13.167 8.8931 10.402 8.8931 10.402C8.8931 10.402 8.8591 10.026 9.1121 9.83404L9.6041 9.43805C9.8401 9.24605 10.0041 8.79205 9.7511 8.34405C9.36471 7.67481 8.91355 7.04512 8.4041 6.46405C8.29299 6.32729 8.13717 6.23415 7.9641 6.20105L7.9661 6.20205ZM12.5801 5.00005C12.4475 5.00005 12.3203 5.05272 12.2266 5.14649C12.1328 5.24026 12.0801 5.36744 12.0801 5.50005C12.0801 5.63265 12.1328 5.75983 12.2266 5.8536C12.3203 5.94737 12.4475 6.00005 12.5801 6.00005C13.8451 6.00005 14.8951 6.41305 15.7261 7.20505C16.1531 7.63805 16.4861 8.15105 16.7041 8.71305C16.9231 9.27605 17.0231 9.87704 16.9971 10.479C16.9943 10.5447 17.0045 10.6103 17.0271 10.672C17.0497 10.7337 17.0842 10.7904 17.1287 10.8387C17.2185 10.9365 17.3435 10.9945 17.4761 11C17.6087 11.0056 17.7381 10.9583 17.8358 10.8684C17.9335 10.7786 17.9915 10.6537 17.9971 10.521C18.0281 9.78053 17.9052 9.04163 17.6361 8.35105C17.3658 7.65718 16.9561 7.02616 16.4321 6.49705L16.4221 6.48705C15.3911 5.50205 14.0861 5.00005 12.5801 5.00005ZM12.5461 6.64405C12.4135 6.64405 12.2863 6.69672 12.1925 6.79049C12.0988 6.88426 12.0461 7.01144 12.0461 7.14405C12.0461 7.27665 12.0988 7.40383 12.1925 7.4976C12.2863 7.59137 12.4135 7.64405 12.5461 7.64405H12.5631C13.4751 7.70905 14.1391 8.01305 14.6041 8.51205C15.0811 9.02605 15.3281 9.66504 15.3091 10.455C15.3061 10.5877 15.3558 10.716 15.4474 10.812C15.539 10.9079 15.665 10.9635 15.7976 10.9665C15.9302 10.9696 16.0586 10.9198 16.1545 10.8282C16.2505 10.7366 16.3061 10.6107 16.3091 10.478C16.3331 9.44104 15.9991 8.54605 15.3371 7.83205V7.83005C14.6601 7.10405 13.7311 6.72005 12.6131 6.64505L12.5961 6.64305L12.5461 6.64405ZM12.5271 8.31905C12.4602 8.31314 12.3928 8.32078 12.3289 8.34151C12.265 8.36223 12.2059 8.39562 12.1552 8.43968C12.1045 8.48374 12.0632 8.53757 12.0337 8.59794C12.0043 8.65832 11.9873 8.72401 11.9838 8.79109C11.9803 8.85818 11.9904 8.92528 12.0134 8.98839C12.0364 9.0515 12.0719 9.10932 12.1178 9.15841C12.1636 9.2075 12.2189 9.24685 12.2803 9.2741C12.3417 9.30136 12.4079 9.31596 12.4751 9.31705C12.8931 9.33905 13.1601 9.46504 13.3281 9.63405C13.4971 9.80405 13.6231 10.077 13.6461 10.504C13.6474 10.5711 13.6621 10.6373 13.6895 10.6986C13.7168 10.7599 13.7562 10.815 13.8054 10.8607C13.8545 10.9065 13.9123 10.9418 13.9754 10.9647C14.0385 10.9876 14.1055 10.9976 14.1725 10.994C14.2395 10.9905 14.3052 10.9735 14.3655 10.944C14.4258 10.9146 14.4795 10.8733 14.5235 10.8226C14.5675 10.7719 14.6009 10.7129 14.6216 10.6491C14.6423 10.5852 14.65 10.5179 14.6441 10.451C14.6121 9.85105 14.4241 9.32104 14.0391 8.93105C13.6521 8.54105 13.1251 8.35105 12.5271 8.31905Z" fill="white"/>
</svg>
